<?xml version="1.0" encoding="UTF-8" standalone="no"?><!DOCTYPE svg PUBLIC "-//W3C//DTD SVG 1.1//EN" "http://www.w3.org/Graphics/SVG/1.1/DTD/svg11.dtd"><svg width="100%" height="100%" viewBox="0 0 250 250" version="1.1" xmlns="http://www.w3.org/2000/svg" xmlns:xlink="http://www.w3.org/1999/xlink" xml:space="preserve" xmlns:serif="http://www.serif.com/" style="fill-rule:evenodd;clip-rule:evenodd;stroke-linejoin:round;stroke-miterlimit:2;"><path d="M198.741,18c3.457,0 6.259,2.802 6.259,6.259l0,182.677c0,1.659 -0.66,3.252 -1.833,4.425l-18.436,18.436c-2.444,2.445 -6.407,2.444 -8.851,0l-14.01,-14.01l-14.009,14.01c-2.445,2.444 -6.407,2.444 -8.851,0l-14.01,-14.01l-14.009,14.01c-2.444,2.445 -6.408,2.444 -8.852,0l-14.009,-14.01l-14.01,14.01c-2.444,2.444 -6.407,2.444 -8.851,0l-18.436,-18.436c-1.173,-1.174 -1.833,-2.766 -1.833,-4.425l0,-182.677c0,-3.457 2.802,-6.259 6.259,-6.259l147.482,0m-6.259,186.343l0,-173.826l-134.965,0l0,173.826l12.176,12.177l14.01,-14.01c2.444,-2.445 6.407,-2.444 8.851,0l14.01,14.01l14.01,-14.01c2.444,-2.444 6.407,-2.444 8.851,0l14.01,14.01l14.009,-14.01c2.444,-2.444 6.407,-2.444 8.851,0l14.01,14.01l12.177,-12.177m-33.964,-38.86c8.093,0 8.093,12.517 0,12.517l-67.037,0c-8.092,0 -8.092,-12.517 0,-12.517l67.037,0m-42.514,-34.918l0,6.096c0,7.882 -12.192,7.882 -12.192,0l0,-6.096l-6.096,0c-7.882,0 -7.882,-12.192 0,-12.192l6.096,0l0,-37.185l-6.096,0c-7.882,0 -7.882,-12.192 0,-12.192l6.096,0l0,-6.096c0,-7.882 12.192,-7.882 12.192,0l0,6.096l9.144,0l0,-6.096c0,-7.882 12.192,-7.882 12.192,0l0,6.416c12.148,2.288 18.641,16.342 12.495,27.045c5.113,3.298 8.509,9.014 8.536,15.511l0,0.114c-0.04,10.251 -8.393,18.579 -18.654,18.579l-2.377,0l0,6.096c0,7.882 -12.192,7.882 -12.192,0l0,-6.096l-9.144,0m17.939,-49.377l-17.939,0l0,37.185l23.713,0c3.558,0 6.453,-2.89 6.462,-6.444c-0.009,-3.507 -2.904,-6.358 -6.462,-6.358l-9.997,0c-7.864,0 -7.864,-12.192 0,-12.192l4.223,0c7.813,0 7.949,-12.191 0,-12.191" style="fill:#005582;fill-rule:nonzero;"/></svg>